<mxfile host="Electron" agent="Mozilla/5.0 (Windows NT 10.0; Win64; x64) AppleWebKit/537.36 (KHTML, like Gecko) draw.io/28.0.6 Chrome/138.0.7204.100 Electron/37.2.3 Safari/537.36" version="28.0.6">
  <diagram name="Page-1" id="LXe_5rU_be1GZW6afaQs">
    <mxGraphModel dx="3380" dy="634" grid="1" gridSize="10" guides="1" tooltips="1" connect="1" arrows="1" fold="1" page="1" pageScale="1" pageWidth="1169" pageHeight="1654" math="0" shadow="0">
      <root>
        <mxCell id="0" />
        <mxCell id="1" parent="0" />
        <mxCell id="-v7wpKkawAi_2lykgmku-1" value="DATA FLOW DIAGRAM" style="text;html=1;align=center;verticalAlign=middle;resizable=0;points=[];autosize=1;strokeColor=none;fillColor=none;fontSize=24;" parent="1" vertex="1">
          <mxGeometry x="-2320" y="30" width="280" height="40" as="geometry" />
        </mxCell>
        <mxCell id="-v7wpKkawAi_2lykgmku-2" value="" style="rounded=0;whiteSpace=wrap;html=1;fillColor=none;dashed=1;" parent="1" vertex="1">
          <mxGeometry x="-2280" y="160" width="160" height="390" as="geometry" />
        </mxCell>
        <mxCell id="-v7wpKkawAi_2lykgmku-3" value="&lt;span&gt;&lt;font style=&quot;font-size: 20px;&quot;&gt;Sources&lt;/font&gt;&lt;/span&gt;" style="rounded=1;whiteSpace=wrap;html=1;fillColor=default;strokeColor=none;fontStyle=0" parent="1" vertex="1">
          <mxGeometry x="-2260" y="120" width="120" height="60" as="geometry" />
        </mxCell>
        <mxCell id="-v7wpKkawAi_2lykgmku-20" style="edgeStyle=orthogonalEdgeStyle;rounded=0;orthogonalLoop=1;jettySize=auto;html=1;entryX=0;entryY=0.5;entryDx=0;entryDy=0;" parent="1" source="-v7wpKkawAi_2lykgmku-4" target="-v7wpKkawAi_2lykgmku-14" edge="1">
          <mxGeometry relative="1" as="geometry" />
        </mxCell>
        <mxCell id="-v7wpKkawAi_2lykgmku-4" value="" style="image;aspect=fixed;html=1;points=[];align=center;fontSize=12;image=img/lib/azure2/general/Folder_Blank.svg;" parent="1" vertex="1">
          <mxGeometry x="-2239" y="258" width="69" height="56.00000000000001" as="geometry" />
        </mxCell>
        <mxCell id="-v7wpKkawAi_2lykgmku-7" value="&lt;b&gt;CRM&lt;/b&gt;" style="text;html=1;align=center;verticalAlign=middle;whiteSpace=wrap;rounded=0;" parent="1" vertex="1">
          <mxGeometry x="-2234.5" y="311" width="60" height="30" as="geometry" />
        </mxCell>
        <mxCell id="-v7wpKkawAi_2lykgmku-27" style="edgeStyle=orthogonalEdgeStyle;rounded=0;orthogonalLoop=1;jettySize=auto;html=1;entryX=0;entryY=0.5;entryDx=0;entryDy=0;" parent="1" source="-v7wpKkawAi_2lykgmku-8" target="-v7wpKkawAi_2lykgmku-17" edge="1">
          <mxGeometry relative="1" as="geometry" />
        </mxCell>
        <mxCell id="-v7wpKkawAi_2lykgmku-28" style="edgeStyle=orthogonalEdgeStyle;rounded=0;orthogonalLoop=1;jettySize=auto;html=1;entryX=0;entryY=0.5;entryDx=0;entryDy=0;" parent="1" source="-v7wpKkawAi_2lykgmku-8" target="-v7wpKkawAi_2lykgmku-16" edge="1">
          <mxGeometry relative="1" as="geometry" />
        </mxCell>
        <mxCell id="-v7wpKkawAi_2lykgmku-29" style="edgeStyle=orthogonalEdgeStyle;rounded=0;orthogonalLoop=1;jettySize=auto;html=1;entryX=0;entryY=0.5;entryDx=0;entryDy=0;" parent="1" source="-v7wpKkawAi_2lykgmku-8" target="-v7wpKkawAi_2lykgmku-18" edge="1">
          <mxGeometry relative="1" as="geometry" />
        </mxCell>
        <mxCell id="-v7wpKkawAi_2lykgmku-8" value="" style="image;aspect=fixed;html=1;points=[];align=center;fontSize=12;image=img/lib/azure2/general/Folder_Blank.svg;" parent="1" vertex="1">
          <mxGeometry x="-2234.5" y="418" width="69" height="56.00000000000001" as="geometry" />
        </mxCell>
        <mxCell id="-v7wpKkawAi_2lykgmku-9" value="&lt;b&gt;ERP&lt;/b&gt;" style="text;html=1;align=center;verticalAlign=middle;whiteSpace=wrap;rounded=0;" parent="1" vertex="1">
          <mxGeometry x="-2230" y="475" width="60" height="30" as="geometry" />
        </mxCell>
        <mxCell id="-v7wpKkawAi_2lykgmku-10" value="" style="rounded=1;whiteSpace=wrap;html=1;fillColor=#ffe6cc;strokeColor=#d79b00;fillStyle=hatch;" parent="1" vertex="1">
          <mxGeometry x="-2050" y="205" width="170" height="340" as="geometry" />
        </mxCell>
        <mxCell id="-v7wpKkawAi_2lykgmku-12" value="&lt;b&gt;Bronze Layer&lt;/b&gt;" style="rounded=1;whiteSpace=wrap;html=1;arcSize=21;fillColor=#ffe6cc;strokeColor=#d79b00;fontSize=16;fillStyle=auto;" parent="1" vertex="1">
          <mxGeometry x="-2025" y="160" width="120" height="30" as="geometry" />
        </mxCell>
        <mxCell id="1FVvcCrdPYvuP5qnEsOk-1" style="edgeStyle=orthogonalEdgeStyle;rounded=0;orthogonalLoop=1;jettySize=auto;html=1;exitX=1;exitY=0.5;exitDx=0;exitDy=0;entryX=0;entryY=0.5;entryDx=0;entryDy=0;" edge="1" parent="1" source="-v7wpKkawAi_2lykgmku-13" target="f4F6Cw_ax9gaye-9FXiI-3">
          <mxGeometry relative="1" as="geometry" />
        </mxCell>
        <mxCell id="-v7wpKkawAi_2lykgmku-13" value="crm_sales_details" style="rounded=1;whiteSpace=wrap;html=1;arcSize=18;fillColor=#ffe6cc;strokeColor=#d79b00;fontSize=14;" parent="1" vertex="1">
          <mxGeometry x="-2025" y="225" width="125" height="30" as="geometry" />
        </mxCell>
        <mxCell id="1FVvcCrdPYvuP5qnEsOk-2" style="edgeStyle=orthogonalEdgeStyle;rounded=0;orthogonalLoop=1;jettySize=auto;html=1;exitX=1;exitY=0.5;exitDx=0;exitDy=0;entryX=0;entryY=0.5;entryDx=0;entryDy=0;" edge="1" parent="1" source="-v7wpKkawAi_2lykgmku-14" target="f4F6Cw_ax9gaye-9FXiI-4">
          <mxGeometry relative="1" as="geometry" />
        </mxCell>
        <mxCell id="-v7wpKkawAi_2lykgmku-14" value="crm_cust_info" style="rounded=1;whiteSpace=wrap;html=1;arcSize=21;fillColor=#ffe6cc;strokeColor=#d79b00;fontSize=14;" parent="1" vertex="1">
          <mxGeometry x="-2025" y="271" width="125" height="30" as="geometry" />
        </mxCell>
        <mxCell id="1FVvcCrdPYvuP5qnEsOk-3" style="edgeStyle=orthogonalEdgeStyle;rounded=0;orthogonalLoop=1;jettySize=auto;html=1;exitX=1;exitY=0.5;exitDx=0;exitDy=0;entryX=0;entryY=0.5;entryDx=0;entryDy=0;" edge="1" parent="1" source="-v7wpKkawAi_2lykgmku-15" target="f4F6Cw_ax9gaye-9FXiI-5">
          <mxGeometry relative="1" as="geometry" />
        </mxCell>
        <mxCell id="-v7wpKkawAi_2lykgmku-15" value="crm_prd_info" style="rounded=1;whiteSpace=wrap;html=1;arcSize=21;fillColor=#ffe6cc;strokeColor=#d79b00;fontSize=14;" parent="1" vertex="1">
          <mxGeometry x="-2025" y="315" width="125" height="30" as="geometry" />
        </mxCell>
        <mxCell id="1FVvcCrdPYvuP5qnEsOk-4" style="edgeStyle=orthogonalEdgeStyle;rounded=0;orthogonalLoop=1;jettySize=auto;html=1;exitX=1;exitY=0.5;exitDx=0;exitDy=0;entryX=0;entryY=0.5;entryDx=0;entryDy=0;" edge="1" parent="1" source="-v7wpKkawAi_2lykgmku-16" target="f4F6Cw_ax9gaye-9FXiI-6">
          <mxGeometry relative="1" as="geometry" />
        </mxCell>
        <mxCell id="-v7wpKkawAi_2lykgmku-16" value="erp_cust_az12" style="rounded=1;whiteSpace=wrap;html=1;arcSize=18;fillColor=#ffe6cc;strokeColor=#d79b00;fontSize=14;" parent="1" vertex="1">
          <mxGeometry x="-2027.5" y="385" width="125" height="30" as="geometry" />
        </mxCell>
        <mxCell id="1FVvcCrdPYvuP5qnEsOk-5" style="edgeStyle=orthogonalEdgeStyle;rounded=0;orthogonalLoop=1;jettySize=auto;html=1;exitX=1;exitY=0.5;exitDx=0;exitDy=0;entryX=0;entryY=0.5;entryDx=0;entryDy=0;" edge="1" parent="1" source="-v7wpKkawAi_2lykgmku-17" target="f4F6Cw_ax9gaye-9FXiI-7">
          <mxGeometry relative="1" as="geometry" />
        </mxCell>
        <mxCell id="-v7wpKkawAi_2lykgmku-17" value="erp_loc_a101" style="rounded=1;whiteSpace=wrap;html=1;arcSize=21;fillColor=#ffe6cc;strokeColor=#d79b00;fontSize=14;" parent="1" vertex="1">
          <mxGeometry x="-2027.5" y="431" width="125" height="30" as="geometry" />
        </mxCell>
        <mxCell id="1FVvcCrdPYvuP5qnEsOk-6" style="edgeStyle=orthogonalEdgeStyle;rounded=0;orthogonalLoop=1;jettySize=auto;html=1;exitX=1;exitY=0.5;exitDx=0;exitDy=0;entryX=0;entryY=0.5;entryDx=0;entryDy=0;" edge="1" parent="1" source="-v7wpKkawAi_2lykgmku-18" target="f4F6Cw_ax9gaye-9FXiI-8">
          <mxGeometry relative="1" as="geometry" />
        </mxCell>
        <mxCell id="-v7wpKkawAi_2lykgmku-18" value="erp_px_cat_g1v2" style="rounded=1;whiteSpace=wrap;html=1;arcSize=21;fillColor=#ffe6cc;strokeColor=#d79b00;fontSize=14;" parent="1" vertex="1">
          <mxGeometry x="-2027.5" y="475" width="125" height="30" as="geometry" />
        </mxCell>
        <mxCell id="-v7wpKkawAi_2lykgmku-21" style="edgeStyle=orthogonalEdgeStyle;rounded=0;orthogonalLoop=1;jettySize=auto;html=1;entryX=0.118;entryY=0.088;entryDx=0;entryDy=0;entryPerimeter=0;" parent="1" source="-v7wpKkawAi_2lykgmku-4" target="-v7wpKkawAi_2lykgmku-10" edge="1">
          <mxGeometry relative="1" as="geometry" />
        </mxCell>
        <mxCell id="-v7wpKkawAi_2lykgmku-22" style="edgeStyle=orthogonalEdgeStyle;rounded=0;orthogonalLoop=1;jettySize=auto;html=1;entryX=0.118;entryY=0.353;entryDx=0;entryDy=0;entryPerimeter=0;" parent="1" source="-v7wpKkawAi_2lykgmku-4" target="-v7wpKkawAi_2lykgmku-10" edge="1">
          <mxGeometry relative="1" as="geometry" />
        </mxCell>
        <mxCell id="f4F6Cw_ax9gaye-9FXiI-1" value="" style="rounded=1;whiteSpace=wrap;html=1;fillColor=#f5f5f5;strokeColor=#666666;fillStyle=hatch;fontColor=#333333;" parent="1" vertex="1">
          <mxGeometry x="-1820" y="205" width="170" height="340" as="geometry" />
        </mxCell>
        <mxCell id="f4F6Cw_ax9gaye-9FXiI-2" value="&lt;b&gt;Silver Layer&lt;/b&gt;" style="rounded=1;whiteSpace=wrap;html=1;arcSize=21;fillColor=#f5f5f5;strokeColor=#666666;fontSize=16;fillStyle=auto;fontColor=#333333;" parent="1" vertex="1">
          <mxGeometry x="-1795" y="160" width="120" height="30" as="geometry" />
        </mxCell>
        <mxCell id="f4F6Cw_ax9gaye-9FXiI-3" value="crm_sales_details" style="rounded=1;whiteSpace=wrap;html=1;arcSize=18;fillColor=#f5f5f5;strokeColor=#666666;fontSize=14;fontColor=#333333;" parent="1" vertex="1">
          <mxGeometry x="-1795" y="225" width="125" height="30" as="geometry" />
        </mxCell>
        <mxCell id="f4F6Cw_ax9gaye-9FXiI-4" value="crm_cust_info" style="rounded=1;whiteSpace=wrap;html=1;arcSize=21;fillColor=#f5f5f5;strokeColor=#666666;fontSize=14;fontColor=#333333;" parent="1" vertex="1">
          <mxGeometry x="-1795" y="271" width="125" height="30" as="geometry" />
        </mxCell>
        <mxCell id="f4F6Cw_ax9gaye-9FXiI-5" value="crm_prd_info" style="rounded=1;whiteSpace=wrap;html=1;arcSize=21;fillColor=#f5f5f5;strokeColor=#666666;fontSize=14;fontColor=#333333;" parent="1" vertex="1">
          <mxGeometry x="-1795" y="315" width="125" height="30" as="geometry" />
        </mxCell>
        <mxCell id="f4F6Cw_ax9gaye-9FXiI-6" value="erp_cust_az12" style="rounded=1;whiteSpace=wrap;html=1;arcSize=18;fillColor=#f5f5f5;strokeColor=#666666;fontSize=14;fontColor=#333333;" parent="1" vertex="1">
          <mxGeometry x="-1797.5" y="385" width="125" height="30" as="geometry" />
        </mxCell>
        <mxCell id="f4F6Cw_ax9gaye-9FXiI-7" value="erp_loc_a101" style="rounded=1;whiteSpace=wrap;html=1;arcSize=21;fillColor=#f5f5f5;strokeColor=#666666;fontSize=14;fontColor=#333333;" parent="1" vertex="1">
          <mxGeometry x="-1797.5" y="431" width="125" height="30" as="geometry" />
        </mxCell>
        <mxCell id="f4F6Cw_ax9gaye-9FXiI-8" value="erp_px_cat_g1v2" style="rounded=1;whiteSpace=wrap;html=1;arcSize=21;fillColor=#f5f5f5;strokeColor=#666666;fontSize=14;fontColor=#333333;" parent="1" vertex="1">
          <mxGeometry x="-1797.5" y="475" width="125" height="30" as="geometry" />
        </mxCell>
        <mxCell id="1FVvcCrdPYvuP5qnEsOk-7" value="" style="rounded=1;whiteSpace=wrap;html=1;fillColor=#fff2cc;strokeColor=#d6b656;fillStyle=hatch;" vertex="1" parent="1">
          <mxGeometry x="-1610" y="205" width="170" height="340" as="geometry" />
        </mxCell>
        <mxCell id="1FVvcCrdPYvuP5qnEsOk-8" value="&lt;b&gt;Gold Layer&lt;/b&gt;" style="rounded=1;whiteSpace=wrap;html=1;arcSize=21;fillColor=#fff2cc;strokeColor=#d6b656;fontSize=16;fillStyle=auto;" vertex="1" parent="1">
          <mxGeometry x="-1585" y="160" width="120" height="30" as="geometry" />
        </mxCell>
        <mxCell id="1FVvcCrdPYvuP5qnEsOk-9" value="fact_sales" style="rounded=1;whiteSpace=wrap;html=1;arcSize=18;fillColor=#fff2cc;strokeColor=#d6b656;fontSize=14;" vertex="1" parent="1">
          <mxGeometry x="-1590" y="228" width="125" height="30" as="geometry" />
        </mxCell>
        <mxCell id="1FVvcCrdPYvuP5qnEsOk-10" value="dim_customers" style="rounded=1;whiteSpace=wrap;html=1;arcSize=21;fillColor=#fff2cc;strokeColor=#d6b656;fontSize=14;" vertex="1" parent="1">
          <mxGeometry x="-1590" y="345" width="125" height="30" as="geometry" />
        </mxCell>
        <mxCell id="1FVvcCrdPYvuP5qnEsOk-11" value="dim_products" style="rounded=1;whiteSpace=wrap;html=1;arcSize=21;fillColor=#fff2cc;strokeColor=#d6b656;fontSize=14;" vertex="1" parent="1">
          <mxGeometry x="-1587.5" y="461" width="125" height="30" as="geometry" />
        </mxCell>
        <mxCell id="1FVvcCrdPYvuP5qnEsOk-15" value="" style="endArrow=classic;html=1;rounded=0;entryX=0;entryY=0.5;entryDx=0;entryDy=0;jumpStyle=gap;" edge="1" parent="1" target="1FVvcCrdPYvuP5qnEsOk-9">
          <mxGeometry width="50" height="50" relative="1" as="geometry">
            <mxPoint x="-1670" y="240" as="sourcePoint" />
            <mxPoint x="-1620" y="190" as="targetPoint" />
          </mxGeometry>
        </mxCell>
        <mxCell id="1FVvcCrdPYvuP5qnEsOk-16" value="" style="endArrow=classic;html=1;rounded=0;entryX=0;entryY=0.75;entryDx=0;entryDy=0;jumpStyle=gap;" edge="1" parent="1" target="1FVvcCrdPYvuP5qnEsOk-10">
          <mxGeometry width="50" height="50" relative="1" as="geometry">
            <mxPoint x="-1670" y="288" as="sourcePoint" />
            <mxPoint x="-1587" y="364" as="targetPoint" />
          </mxGeometry>
        </mxCell>
        <mxCell id="1FVvcCrdPYvuP5qnEsOk-17" value="" style="endArrow=classic;html=1;rounded=0;entryX=0;entryY=0.75;entryDx=0;entryDy=0;jumpStyle=gap;" edge="1" parent="1" target="1FVvcCrdPYvuP5qnEsOk-11">
          <mxGeometry width="50" height="50" relative="1" as="geometry">
            <mxPoint x="-1672.5" y="331" as="sourcePoint" />
            <mxPoint x="-1589.5" y="407" as="targetPoint" />
          </mxGeometry>
        </mxCell>
        <mxCell id="1FVvcCrdPYvuP5qnEsOk-18" value="" style="endArrow=classic;html=1;rounded=0;jumpStyle=gap;entryX=0;entryY=0.5;entryDx=0;entryDy=0;" edge="1" parent="1" target="1FVvcCrdPYvuP5qnEsOk-10">
          <mxGeometry width="50" height="50" relative="1" as="geometry">
            <mxPoint x="-1670" y="399" as="sourcePoint" />
            <mxPoint x="-1590" y="330" as="targetPoint" />
          </mxGeometry>
        </mxCell>
        <mxCell id="1FVvcCrdPYvuP5qnEsOk-19" value="" style="endArrow=classic;html=1;rounded=0;jumpStyle=gap;entryX=0;entryY=0.5;entryDx=0;entryDy=0;" edge="1" parent="1" target="1FVvcCrdPYvuP5qnEsOk-10">
          <mxGeometry width="50" height="50" relative="1" as="geometry">
            <mxPoint x="-1672.5" y="449" as="sourcePoint" />
            <mxPoint x="-1590" y="370" as="targetPoint" />
            <Array as="points">
              <mxPoint x="-1640" y="450" />
            </Array>
          </mxGeometry>
        </mxCell>
        <mxCell id="1FVvcCrdPYvuP5qnEsOk-20" value="" style="endArrow=classic;html=1;rounded=0;entryX=0;entryY=0.5;entryDx=0;entryDy=0;jumpStyle=gap;" edge="1" parent="1" target="1FVvcCrdPYvuP5qnEsOk-11">
          <mxGeometry width="50" height="50" relative="1" as="geometry">
            <mxPoint x="-1672.5" y="489" as="sourcePoint" />
            <mxPoint x="-1592.5" y="450" as="targetPoint" />
          </mxGeometry>
        </mxCell>
      </root>
    </mxGraphModel>
  </diagram>
</mxfile>
